<?xml version="1.0" encoding="utf-8"?>
<!-- Generator: Adobe Illustrator 17.1.0, SVG Export Plug-In . SVG Version: 6.00 Build 0)  -->
<!DOCTYPE svg PUBLIC "-//W3C//DTD SVG 1.1//EN" "http://www.w3.org/Graphics/SVG/1.1/DTD/svg11.dtd">
<svg version="1.1" id="Vigo" xmlns="http://www.w3.org/2000/svg" xmlns:xlink="http://www.w3.org/1999/xlink" x="0px" y="0px"
	 viewBox="281 4337 83 86" enable-background="new 281 4337 83 86" xml:space="preserve">
<g>
	<g>
		<path fill="#FFFFFF" d="M307,4373h-2v-9h-15v9h-2v1h19V4373z M356,4362h-2.01c-0.09-3.07-2.96-5.53-6.49-5.53s-6.4,2.46-6.49,5.53
			H339v1h17V4362z M306,4362h-2.01c-0.09-3.07-2.96-5.53-6.49-5.53s-6.4,2.46-6.49,5.53H289v1h17V4362z M337.85,4387.27
			c1.14-7.57-4.15-14.58-11.82-15.67c-0.67-0.1-1.34-0.14-2.01-0.14c-6.87,0-12.9,4.98-13.94,11.88
			c-1.14,7.57,9.63,30.18,9.63,30.18S336.71,4394.84,337.85,4387.27z M323.6,4378.31c3.17-0.38,6.04,1.85,6.4,4.98
			c0.36,3.13-1.91,5.96-5.08,6.34c-3.17,0.38-6.04-1.85-6.4-4.98C318.15,4381.53,320.43,4378.69,323.6,4378.31z M325.05,4412.02
			c-1.39,1.62-2.51,2.86-3.12,3.53c-0.57,0.63-1.38,0.98-2.22,0.98c-0.15,0-0.29-0.01-0.44-0.03c-0.99-0.15-1.84-0.77-2.27-1.68
			c-0.31-0.65-0.82-1.74-1.45-3.13c-2.1,0.72-3.49,1.93-3.49,3.32c0,2.21,3.5,4,7.81,4c4.31,0,7.81-1.79,7.81-4
			C327.68,4413.81,326.66,4412.75,325.05,4412.02z M307,4396h-2v-21h-15v21h-2v1h19V4396z M300,4394h-5v-11c0-1.66,1.12-3,2.5-3
			s2.5,1.34,2.5,3V4394z M355,4375h-15v4.55c0.94,2.58,1.23,5.38,0.81,8.17c-0.13,0.85-0.41,1.8-0.81,2.81v5.47h-2v1h19v-1h-2V4375z
			 M350,4394h-5v-11c0-1.66,1.12-3,2.5-3s2.5,1.34,2.5,3V4394z M355,4373v-9h-15v9h-2v1h19v-1H355z M296.65,4409l14.49-7.94
			c-0.36-0.96-0.71-1.92-1.05-2.9l-5.09,2.79V4398h-15v16h18.09c0.87-2.15,3.08-3.95,6.04-5H296.65z M340,4400.85l-4.4-2.4
			c-0.56,0.84-1.15,1.68-1.75,2.52l14.73,8.04H327.6c-0.11,0.14-0.23,0.28-0.34,0.41c2.44,1.08,4.25,2.7,5.01,4.59H355v-16h-15
			V4400.85z"/>
	</g>
</g>
</svg>
