<?xml version="1.0" encoding="utf-8"?>
<!-- Generator: Adobe Illustrator 17.1.0, SVG Export Plug-In . SVG Version: 6.00 Build 0)  -->
<!DOCTYPE svg PUBLIC "-//W3C//DTD SVG 1.1//EN" "http://www.w3.org/Graphics/SVG/1.1/DTD/svg11.dtd">
<svg version="1.1" id="Madrid" xmlns="http://www.w3.org/2000/svg" xmlns:xlink="http://www.w3.org/1999/xlink" x="0px" y="0px"
	 viewBox="281 4337 83 86" enable-background="new 281 4337 83 86" xml:space="preserve">
<g>
	<g>
		<path fill="#FFFFFF" d="M308,4405h10.68c-0.91-2.24-1.84-4.67-2.68-7.11v3.11h-5v-7h3.75c-0.62-2.11-1.12-4.15-1.42-6H308V4405z
			 M346.76,4388c-0.42,2.28-1.85,5.19-3.76,8.28v4.72h-3.18c-0.98,1.36-1.99,2.7-3,4H356v-17H346.76z M352,4401h-5v-7h5V4401z
			 M343.85,4387.27c1.14-7.57-4.15-14.58-11.82-15.67c-0.67-0.1-1.34-0.14-2.01-0.14c-6.87,0-12.9,4.98-13.94,11.88
			c-1.14,7.57,9.63,30.18,9.63,30.18S342.71,4394.84,343.85,4387.27z M329.6,4378.31c3.17-0.38,6.04,1.85,6.4,4.98
			c0.36,3.13-1.91,5.96-5.08,6.34c-3.17,0.38-6.04-1.85-6.4-4.98C324.15,4381.53,326.43,4378.69,329.6,4378.31z M305.38,4379.51
			c0.38-0.37,0.62-0.9,0.62-1.51c0-1.1-0.79-2-1.76-2H304v-10h-0.53c0.84,0,1.53-0.32,1.53-1s-0.68-1-1.53-1H303l-3.99-17.73
			c0.51-0.2,0.86-0.7,0.86-1.27c0-0.76-0.62-1.38-1.38-1.38s-1.38,0.62-1.38,1.38c0,0.58,0.36,1.07,0.86,1.27L294,4364h-0.47
			c-0.84,0-1.53,0.32-1.53,1s0.68,1,1.53,1H293v10h-0.24c-0.97,0-1.76,0.9-1.76,2c0,0.61,0.24,1.14,0.62,1.51L286,4387h4v27h17v-27
			h4L305.38,4379.51z M298.5,4380c1.66,0,3,1.34,3,3s-1.34,3-3,3s-3-1.34-3-3S296.84,4380,298.5,4380z M302,4406h-7v-15h7V4406z
			 M319.09,4406H308v8h6.09c0.88-2.2,3.19-4.02,6.24-5.06C319.94,4408.02,319.52,4407.04,319.09,4406z M333.25,4409.42
			c2.44,1.08,4.26,2.69,5.02,4.58H356v-8h-19.97C335.08,4407.21,334.14,4408.36,333.25,4409.42z M331.05,4412.02
			c-1.39,1.62-2.51,2.86-3.12,3.53c-0.57,0.63-1.38,0.98-2.22,0.98c-0.15,0-0.29-0.01-0.44-0.03c-0.99-0.15-1.84-0.77-2.27-1.68
			c-0.31-0.65-0.82-1.74-1.45-3.13c-2.1,0.72-3.49,1.93-3.49,3.32c0,2.21,3.5,4,7.81,4c4.31,0,7.81-1.79,7.81-4
			C333.68,4413.81,332.66,4412.75,331.05,4412.02z"/>
	</g>
</g>
</svg>
