<?xml version="1.0" encoding="utf-8"?>
<!-- Generator: Adobe Illustrator 17.1.0, SVG Export Plug-In . SVG Version: 6.00 Build 0)  -->
<!DOCTYPE svg PUBLIC "-//W3C//DTD SVG 1.1//EN" "http://www.w3.org/Graphics/SVG/1.1/DTD/svg11.dtd">
<svg version="1.1" id="Mexico" xmlns="http://www.w3.org/2000/svg" xmlns:xlink="http://www.w3.org/1999/xlink" x="0px" y="0px"
	 viewBox="281 4337 83 86" enable-background="new 281 4337 83 86" xml:space="preserve">
<g>
	<g>
		<path fill="#FFFFFF" d="M335,4399.79v0.21h18v-24h1v-1h-16.22c0.08,0.1,0.16,0.18,0.23,0.28c2.68,3.59,3.79,8.01,3.12,12.44
			C340.65,4390.88,338.1,4395.34,335,4399.79z M344,4387c1.66,0,3,1.34,3,3v9h-6v-9C341,4388.34,342.34,4387,344,4387z M349,4350.95
			c-0.16,0.03-0.33,0.05-0.5,0.05c-1.38,0-2.5-1.12-2.5-2.5c0-0.57,0.19-1.08,0.51-1.5h-0.01c0.83,0,1.5-0.67,1.5-1.5
			s-0.67-1.5-1.5-1.5H346c0-0.55-0.9-1-2-1s-2,0.45-2,1h-0.5c-0.83,0-1.5,0.67-1.5,1.5s0.67,1.5,1.5,1.5h-0.01
			c0.32,0.42,0.51,0.93,0.51,1.5c0,1.38-1.12,2.5-2.5,2.5c-0.17,0-0.34-0.02-0.5-0.05v6.05h10V4350.95z M320.03,4413.53
			c0,0,17-18.68,18.14-26.25c1.14-7.57-4.15-14.58-11.82-15.67c-0.67-0.1-1.34-0.14-2.01-0.14c-6.87,0-12.9,4.98-13.94,11.88
			C309.25,4390.92,320.03,4413.53,320.03,4413.53z M323.91,4378.31c3.17-0.38,6.04,1.85,6.4,4.98c0.36,3.13-1.91,5.96-5.08,6.34
			c-3.17,0.38-6.04-1.85-6.4-4.98C318.47,4381.53,320.74,4378.69,323.91,4378.31z M306,4350.95c-0.16,0.03-0.33,0.05-0.5,0.05
			c-1.38,0-2.5-1.12-2.5-2.5c0-0.57,0.19-1.08,0.51-1.5h-0.01c0.83,0,1.5-0.67,1.5-1.5s-0.67-1.5-1.5-1.5H303c0-0.55-0.9-1-2-1
			s-2,0.45-2,1h-0.5c-0.83,0-1.5,0.67-1.5,1.5s0.67,1.5,1.5,1.5h-0.01c0.32,0.42,0.51,0.93,0.51,1.5c0,1.38-1.12,2.5-2.5,2.5
			c-0.17,0-0.34-0.02-0.5-0.05v6.05h10V4350.95z M325.37,4412.02c-1.39,1.62-2.51,2.86-3.12,3.53c-0.57,0.63-1.38,0.98-2.22,0.98
			c-0.15,0-0.29-0.01-0.44-0.03c-0.99-0.15-1.84-0.77-2.27-1.68c-0.31-0.65-0.82-1.74-1.45-3.13c-2.1,0.72-3.49,1.93-3.49,3.32
			c0,2.21,3.5,4,7.81,4s7.81-1.79,7.81-4C328,4413.81,326.98,4412.75,325.37,4412.02z M337,4374h14v-15h1v-1h-16v1h1V4374z
			 M342,4368.33c0-1.1,0.9-2,2-2s2,0.9,2,2v4.67h-4V4368.33z M311.44,4401H290v1h1v12h17.41c0.88-2.2,3.19-4.02,6.24-5.06
			C313.65,4406.62,312.51,4403.88,311.44,4401z M334.14,4401c-2.16,3-4.51,5.94-6.57,8.42c2.44,1.08,4.26,2.69,5.02,4.58H354v-12h1
			v-1H334.14z M292,4400h18v-3.05c-1.8-5.4-3.07-10.73-2.57-14.05c0.37-2.44,1.27-4.69,2.57-6.67V4376h0.15
			c0.23-0.34,0.49-0.67,0.75-1H291v1h1V4400z M298,4390c0-1.66,1.34-3,3-3s3,1.34,3,3v9h-6V4390z M294,4374h14v-15h1v-1h-16v1h1
			V4374z M299,4368.33c0-1.1,0.9-2,2-2s2,0.9,2,2v4.67h-4V4368.33z"/>
	</g>
</g>
</svg>
