<?xml version="1.0" encoding="utf-8"?>
<!-- Generator: Adobe Illustrator 17.1.0, SVG Export Plug-In . SVG Version: 6.00 Build 0)  -->
<!DOCTYPE svg PUBLIC "-//W3C//DTD SVG 1.1//EN" "http://www.w3.org/Graphics/SVG/1.1/DTD/svg11.dtd">
<svg version="1.1" id="Londres" xmlns:ev="http://www.w3.org/2001/xml-events"
	 xmlns="http://www.w3.org/2000/svg" xmlns:xlink="http://www.w3.org/1999/xlink" x="0px" y="0px" viewBox="281 4337 83 86"
	 enable-background="new 281 4337 83 86" xml:space="preserve">
<g>
	<g>
		<path fill="#FFFFFF" d="M337.02,4371.61c-0.67-0.1-1.34-0.14-2.01-0.14c-6.87,0-12.9,4.98-13.94,11.88
			c-1.14,7.57,9.63,30.18,9.63,30.18s17-18.68,18.14-26.25C349.98,4379.71,344.69,4372.69,337.02,4371.61z M335.91,4389.63
			c-3.17,0.38-6.04-1.85-6.4-4.98c-0.36-3.13,1.91-5.96,5.08-6.34c3.17-0.38,6.04,1.85,6.4,4.98
			C341.36,4386.42,339.08,4389.26,335.91,4389.63z M324.77,4407.62c-1.34-3.15-2.83-6.91-4.08-10.65c-1.83,2.1-4.5,3.44-7.5,3.44
			c-5.52,0-9.99-4.47-9.99-9.99c0-5.52,4.47-9.99,9.99-9.99c1.88,0,3.63,0.52,5.13,1.43c0.79-3.63,2.75-6.82,5.46-9.17l-3.02-5.3
			V4361h0.02l-7.59-18.91l-7.59,18.91h0.02v6.39l-5.62,9.85v26.37l1.6,1.6v8.79h17.49c0.83-2.06,2.9-3.79,5.68-4.86V4407.62z
			 M336.05,4412.02c-1.39,1.62-2.51,2.86-3.12,3.53c-0.57,0.63-1.38,0.98-2.22,0.98c-0.15,0-0.29-0.01-0.44-0.03
			c-0.99-0.15-1.84-0.77-2.27-1.68c-0.31-0.65-0.82-1.74-1.45-3.13c-2.1,0.72-3.49,1.93-3.49,3.32c0,2.21,3.5,4,7.81,4
			c4.31,0,7.81-1.79,7.81-4C338.68,4413.81,337.66,4412.75,336.05,4412.02z"/>
	</g>
</g>
</svg>
